<svg id="Layer_1" data-name="Layer 1" xmlns="http://www.w3.org/2000/svg" viewBox="0 0 648 202"><defs><style>.cls-1,.cls-3{fill:#6f517d;}.cls-2{fill:#f36636;}.cls-3{font-size:114.15px;font-family:Montserrat-Bold, Montserrat;font-weight:700;letter-spacing:-0.08em;}.cls-4{letter-spacing:-0.08em;}.cls-5{letter-spacing:-0.08em;}.cls-6{font-size:105.37px;letter-spacing:-0.08em;}.cls-7{letter-spacing:-0.1em;}.cls-8{letter-spacing:-0.08em;}.cls-9{letter-spacing:-0.08em;}</style></defs><title>rectangle-logo</title><rect class="cls-1" x="71.24" y="93.61" width="168.82" height="2.79" transform="translate(60.65 250.65) rotate(-90)"/><path class="cls-1" d="M69.92,165.11A54.59,54.59,0,0,1,20.06,91.87,107.28,107.28,0,0,1,33.42,66.23,228.49,228.49,0,0,1,57.75,37c3.49-3.63,7.07-7.18,10.62-10.75a3.74,3.74,0,0,1,5.72,0c10.66,10.57,21,21.39,30.09,33.4,7.06,9.37,13.28,19.22,17.39,30.28,3.32,8.93,4.85,18.1,3.56,27.62A54.57,54.57,0,0,1,80,164.16C76.68,164.72,73.28,164.81,69.92,165.11ZM71.18,34.35c-.31.29-.58.51-.82.77-1.86,1.9-3.73,3.8-5.57,5.72A247.85,247.85,0,0,0,42.21,67.22C35.86,76,30.33,85.21,27,95.6a46.72,46.72,0,0,0-1.95,21.82A45.4,45.4,0,0,0,38.89,144c11,10.44,24.18,14.7,39.22,12.57a44.91,44.91,0,0,0,27.12-14.33,45.65,45.65,0,0,0,12.54-29.87c.36-7.73-1.48-15.05-4.37-22.15-3.85-9.43-9.31-17.9-15.43-26A265,265,0,0,0,75.62,38.8C74.17,37.32,72.69,35.86,71.18,34.35Z"/><path class="cls-1" d="M71.26,44.38C74.58,48,77.86,51.47,81,55A172.29,172.29,0,0,1,100,80.1c3.93,6.48,7.26,13.23,8.93,20.68A37.44,37.44,0,0,1,102,132.88a37.08,37.08,0,0,1-26.19,15c-13.07,1.49-24.29-2.66-33.27-12.29a37.51,37.51,0,0,1-10.23-27.89A44.88,44.88,0,0,1,36,92.3C39.87,83,45.42,74.68,51.53,66.74A270.83,270.83,0,0,1,70.64,44.92C70.79,44.77,71,44.64,71.26,44.38Zm-.18,5.45a7.39,7.39,0,0,1-.56.82A230.21,230.21,0,0,0,50.76,74.33a92.88,92.88,0,0,0-11.9,21.42c-2.66,7.17-3.53,14.47-1.66,22a34.95,34.95,0,0,0,67.9-16.56c-1.78-7.36-5.19-14-9.17-20.34A181.39,181.39,0,0,0,77,56.38C75.13,54.24,73.18,52.14,71.08,49.84Z"/><polygon class="cls-2" points="71.29 74.35 78.97 98 103.84 98 83.72 113.34 91.41 137.35 71.29 122.91 51.17 137.62 58.85 113.29 38.74 98 63.6 98 71.29 74.35"/><text class="cls-3" transform="translate(182.63 90.95)">L<tspan class="cls-4" x="55.37" y="0">one</tspan><tspan class="cls-5" x="246.92" y="0">s</tspan><tspan class="cls-4" x="297.14" y="0">tar</tspan><tspan class="cls-6"><tspan x="-0.91" y="90.74">Elixir</tspan><tspan class="cls-7" x="217.21" y="90.74">C</tspan><tspan x="284.12" y="90.74">o</tspan><tspan class="cls-8" x="344.5" y="90.74">n</tspan><tspan class="cls-9" x="403.3" y="90.74">f</tspan></tspan></text></svg>