<svg id="Layer_1" data-name="Layer 1" xmlns="http://www.w3.org/2000/svg" viewBox="0 0 151 178.84"><defs><style>.cls-1,.cls-3{fill:#6f517d;}.cls-1{stroke:#6f517d;stroke-miterlimit:10;stroke-width:10px;}.cls-2{fill:#fff;}</style></defs><title>SqrLogo</title><path class="cls-1" d="M14.84,129V94h7.8v28h14.9v7Z"/><path class="cls-1" d="M67.19,124.17a18,18,0,0,1-13,5.17,18,18,0,0,1-13.05-5.17,18.29,18.29,0,0,1,0-25.75,18,18,0,0,1,13.05-5.17,18,18,0,0,1,13,5.17,18.29,18.29,0,0,1,0,25.75Zm-2.65-12.85a11.44,11.44,0,0,0-3-8,9.89,9.89,0,0,0-14.75,0,12.07,12.07,0,0,0,0,15.93,9.94,9.94,0,0,0,14.75,0A11.35,11.35,0,0,0,64.54,111.32Z"/><path class="cls-1" d="M99,94h7.8v35H99l-16.65-21.9V129h-7.8V94h7.3L99,116.54Z"/><path class="cls-1" d="M136.14,94v7h-17.4v7.2h15.65v6.65H118.74v7.25h18V129H110.94V94Z"/><path class="cls-1" d="M24.23,139.88A3.26,3.26,0,0,0,23,142.53a3,3,0,0,0,1.49,2.62q1.49,1,6.86,2.3a19.32,19.32,0,0,1,8.35,4q3,2.65,3,7.73a10.2,10.2,0,0,1-3.81,8.24q-3.81,3.16-10,3.16a23.2,23.2,0,0,1-16.15-6.65l5-6.16q6.1,5.35,11.29,5.35a5.92,5.92,0,0,0,3.65-1,3.21,3.21,0,0,0,1.32-2.7,3.15,3.15,0,0,0-1.41-2.7,18.33,18.33,0,0,0-5.56-2q-6.59-1.57-9.64-4.08t-3.05-7.89a9.78,9.78,0,0,1,3.86-8.29,15.55,15.55,0,0,1,9.64-2.92,23.2,23.2,0,0,1,7.56,1.3A20.28,20.28,0,0,1,42,136.45l-4.27,6.16a16.63,16.63,0,0,0-10.16-3.73A5.08,5.08,0,0,0,24.23,139.88Z"/><path class="cls-1" d="M60.67,139.64v30.47H52.24V139.64H41.54v-7.29H71.37v7.29Z"/><path class="cls-1" d="M96.81,170.11l-3.51-8.16H77.47L74,170.11H65l16.32-37.77h8.16l16.32,37.77Zm-11.4-26.53-4.75,11h9.45Z"/><path class="cls-1" d="M135.93,144.88q0,9.08-7.19,11.72l9.56,13.51H127.93l-8.37-12h-5.83v12H105.3V132.34h14.32q8.81,0,12.56,3T135.93,144.88Zm-10.16,4.48a5.71,5.71,0,0,0,1.57-4.46q0-3.05-1.62-4.19T120,139.58h-6.32v11.18h6.16Q124.21,150.77,125.77,149.36Z"/><path class="cls-2" d="M14.84,129V94h7.8v28h14.9v7Z"/><path class="cls-2" d="M67.19,124.17a18,18,0,0,1-13,5.17,18,18,0,0,1-13.05-5.17,18.29,18.29,0,0,1,0-25.75,18,18,0,0,1,13.05-5.17,18,18,0,0,1,13,5.17,18.29,18.29,0,0,1,0,25.75Zm-2.65-12.85a11.44,11.44,0,0,0-3-8,9.89,9.89,0,0,0-14.75,0,12.07,12.07,0,0,0,0,15.93,9.94,9.94,0,0,0,14.75,0A11.35,11.35,0,0,0,64.54,111.32Z"/><path class="cls-2" d="M99,94h7.8v35H99l-16.65-21.9V129h-7.8V94h7.3L99,116.54Z"/><path class="cls-2" d="M136.14,94v7h-17.4v7.2h15.65v6.65H118.74v7.25h18V129H110.94V94Z"/><path class="cls-2" d="M24.23,139.88A3.26,3.26,0,0,0,23,142.53a3,3,0,0,0,1.49,2.62q1.49,1,6.86,2.3a19.32,19.32,0,0,1,8.35,4q3,2.65,3,7.73a10.2,10.2,0,0,1-3.81,8.24q-3.81,3.16-10,3.16a23.2,23.2,0,0,1-16.15-6.65l5-6.16q6.1,5.35,11.29,5.35a5.92,5.92,0,0,0,3.65-1,3.21,3.21,0,0,0,1.32-2.7,3.15,3.15,0,0,0-1.41-2.7,18.33,18.33,0,0,0-5.56-2q-6.59-1.57-9.64-4.08t-3.05-7.89a9.78,9.78,0,0,1,3.86-8.29,15.55,15.55,0,0,1,9.64-2.92,23.2,23.2,0,0,1,7.56,1.3A20.28,20.28,0,0,1,42,136.45l-4.27,6.16a16.63,16.63,0,0,0-10.16-3.73A5.08,5.08,0,0,0,24.23,139.88Z"/><path class="cls-2" d="M60.67,139.64v30.47H52.24V139.64H41.54v-7.29H71.37v7.29Z"/><path class="cls-2" d="M96.81,170.11l-3.51-8.16H77.47L74,170.11H65l16.32-37.77h8.16l16.32,37.77Zm-11.4-26.53-4.75,11h9.45Z"/><path class="cls-2" d="M135.93,144.88q0,9.08-7.19,11.72l9.56,13.51H127.93l-8.37-12h-5.83v12H105.3V132.34h14.32q8.81,0,12.56,3T135.93,144.88Zm-10.16,4.48a5.71,5.71,0,0,0,1.57-4.46q0-3.05-1.62-4.19T120,139.58h-6.32v11.18h6.16Q124.21,150.77,125.77,149.36Z"/><path class="cls-3" d="M72.31,88.06A32.61,32.61,0,0,1,42.53,44.31,64.09,64.09,0,0,1,50.5,29,136.5,136.5,0,0,1,65,11.52c2.09-2.17,4.22-4.29,6.34-6.42a2.23,2.23,0,0,1,3.41,0,186.59,186.59,0,0,1,18,20,71.87,71.87,0,0,1,10.39,18.09,33.73,33.73,0,0,1,2.13,16.5,32.6,32.6,0,0,1-27,27.86C76.35,87.83,74.32,87.88,72.31,88.06ZM73.06,10c-.18.17-.34.31-.49.46-1.11,1.14-2.23,2.27-3.33,3.42A148.06,148.06,0,0,0,55.76,29.58a60.55,60.55,0,0,0-9.09,17,27.91,27.91,0,0,0-1.16,13A28,28,0,0,0,77.2,83,26.83,26.83,0,0,0,93.4,74.4a27.27,27.27,0,0,0,7.49-17.84,31,31,0,0,0-2.61-13.23A69.28,69.28,0,0,0,89.07,27.8,158.32,158.32,0,0,0,75.72,12.61C74.85,11.72,74,10.85,73.06,10Z"/><path class="cls-3" d="M73.11,15.94c2,2.16,3.95,4.23,5.85,6.36a102.92,102.92,0,0,1,11.36,15,41.38,41.38,0,0,1,5.34,12.36A22.37,22.37,0,0,1,91.5,68.81a22.15,22.15,0,0,1-15.65,9,23.24,23.24,0,0,1-26-24,26.81,26.81,0,0,1,2.21-9.22A66.71,66.71,0,0,1,61.33,29.3a161.79,161.79,0,0,1,11.42-13C72.83,16.17,72.93,16.1,73.11,15.94ZM73,19.2a4.41,4.41,0,0,1-.34.49,137.52,137.52,0,0,0-11.8,14.14,55.48,55.48,0,0,0-7.11,12.79,21.83,21.83,0,0,0-1,13.15,20.88,20.88,0,0,0,40.56-9.89,41.26,41.26,0,0,0-5.48-12.15A108.36,108.36,0,0,0,76.57,23.11C75.42,21.83,74.26,20.58,73,19.2Z"/><polygon class="cls-3" points="73.13 32.71 77.72 46.84 92.58 46.84 80.56 56.57 85.15 71.19 73.13 62.71 61.11 71.57 65.7 56.51 53.68 46.84 68.54 46.84 73.13 32.71"/></svg>