<svg id="Layer_1" data-name="Layer 1" xmlns="http://www.w3.org/2000/svg" viewBox="0 0 151 178.84"><defs><style>.cls-1{fill:#6f517d;}.cls-2{fill:#f36636;}</style></defs><title>twitter</title><path class="cls-1" d="M74,175.56a67.56,67.56,0,0,1-63.32-50.87C7.28,111.44,8.29,98.41,12.7,85.57c3.89-11.32,9.68-21.66,16.41-31.5A280.74,280.74,0,0,1,59,18.14c4.29-4.46,8.68-8.82,13-13.2a4.59,4.59,0,0,1,7,0c13.1,13,25.85,26.28,37,41,8.67,11.51,16.31,23.62,21.37,37.21,4.08,11,6,22.24,4.38,33.94a67.05,67.05,0,0,1-55.46,57.31C82.26,175.07,78.09,175.19,74,175.56ZM75.5,14.9c-.38.35-.71.63-1,.94-2.29,2.34-4.58,4.67-6.85,7A304.52,304.52,0,0,0,39.91,55.28c-7.8,10.78-14.6,22.11-18.69,34.88A57.4,57.4,0,0,0,18.83,117a55.78,55.78,0,0,0,17,32.65C49.39,162.45,65.54,167.69,84,165.07a55.17,55.17,0,0,0,33.32-17.61,56.09,56.09,0,0,0,15.41-36.7c.44-9.49-1.81-18.49-5.37-27.21-4.72-11.58-11.44-22-19-31.92A325.63,325.63,0,0,0,81,20.37C79.18,18.55,77.36,16.76,75.5,14.9Z"/><path class="cls-1" d="M75.6,27.23c4.08,4.43,8.12,8.7,12,13.09A211.68,211.68,0,0,1,111,71.11c4.83,8,8.92,16.26,11,25.41,3.24,14.45.37,27.67-8.52,39.43a45.56,45.56,0,0,1-32.18,18.47c-16.06,1.83-29.84-3.27-40.88-15.1-8.94-9.59-13-21.16-12.57-34.26a55.14,55.14,0,0,1,4.54-19c4.7-11.46,11.51-21.65,19-31.4A332.76,332.76,0,0,1,74.85,27.89C75,27.7,75.23,27.55,75.6,27.23Zm-.22,6.7a9.07,9.07,0,0,1-.69,1A282.85,282.85,0,0,0,50.42,64c-5.85,8.22-11.09,16.8-14.62,26.31-3.27,8.82-4.34,17.78-2,27A42.94,42.94,0,0,0,117.19,97c-2.18-9-6.38-17.18-11.27-25A222.87,222.87,0,0,0,82.71,42C80.36,39.34,78,36.76,75.38,33.93Z"/><polygon class="cls-2" points="75.95 61.94 85.39 91 115.95 91 91.23 110.9 100.67 140.93 75.95 123.45 51.23 141.65 60.67 110.78 35.96 91 66.51 91 75.95 61.94"/></svg>